<svg id="Capa_1" data-name="Capa 1" xmlns="http://www.w3.org/2000/svg" viewBox="0 0 30 30"><defs><style>.cls-1{fill:#0038a8;}.cls-1,.cls-2,.cls-3,.cls-4{fill-rule:evenodd;}.cls-2{fill:#fff;}.cls-4{fill:#fbd116;}</style></defs><title>Mesa de trabajo 6</title><path class="cls-1" d="M15,30A15,15,0,1,0,0,15,15,15,0,0,0,15,30Z"/><path class="cls-2" d="M14.82,0A15,15,0,0,0,0,15a15.43,15.43,0,0,0,.09,1.67H14.82V13.33h0V10h0V6.67h0V3.33h0Z"/><polygon class="cls-3" points="7.5 10.51 7.49 10.5 7.52 10.48 7.53 10.5 8.02 11.24 8.03 11.25 8.01 11.27 8 11.26 7.5 10.51"/><path class="cls-4" d="M6.4,11.23l.74-.6.87.62c-2,1.47-.79,2.35-2.24,2.82C6.67,13.19,5.64,13.06,6.4,11.23Z"/><path class="cls-3" d="M8,11.24H8l0,0H8a3,3,0,0,0-1.36,1.85,1.11,1.11,0,0,1-.89,1l0,0,0,0a.94.94,0,0,0,.36-1,2.83,2.83,0,0,1,.25-1.76h0A2.88,2.88,0,0,0,6.14,13a.94.94,0,0,1-.32,1,1.06,1.06,0,0,0,.81-.93A3,3,0,0,1,8,11.24Z"/><path class="cls-3" d="M7.17,10.72a5.19,5.19,0,0,0-.73,2.15c-.09.58-.14,1-.66,1.21l0,0c.51-.25.57-.63.65-1.19a5.27,5.27,0,0,1,.74-2.16Z"/><polygon class="cls-4" points="7.85 9.04 8.84 9.04 7.85 14.48 6.86 9.04 7.85 9.04 7.85 14.48 7.85 9.04"/><path class="cls-3" d="M7.85,9h1l-1,5.45,0,.07v-.07L6.85,9h1Zm1,0h-1v5.28l1-5.28Zm-1.95,0,1,5.28V9.05Z"/><polygon class="cls-3" points="6.56 9.83 6.57 9.82 6.59 9.82 6.59 9.84 6.42 10.71 6.42 10.73 6.39 10.72 6.39 10.71 6.56 9.83"/><path class="cls-4" d="M5.29,9.56l.9.17.21,1c-2.48-.4-2.22,1.1-3.58.41C4.08,11.14,3.46,10.32,5.29,9.56Z"/><path class="cls-3" d="M6.41,10.7h0v0h0a2.9,2.9,0,0,0-2.27.35,1.13,1.13,0,0,1-1.31.06l-.06,0h.06a1,1,0,0,0,1-.47A2.84,2.84,0,0,1,5.22,9.58h0l0,0h0a2.84,2.84,0,0,0-1.41,1.05,1,1,0,0,1-.93.48,1.07,1.07,0,0,0,1.22-.09A2.94,2.94,0,0,1,6.41,10.7Z"/><path class="cls-3" d="M6.18,9.75a5.12,5.12,0,0,0-2,1c-.46.34-.78.58-1.32.39v0c.53.19.84,0,1.29-.38a5.24,5.24,0,0,1,2.05-1Z"/><polygon class="cls-4" points="7.85 9.04 8.55 9.74 4 12.89 7.15 8.34 7.85 9.04 4 12.89 7.85 9.04"/><path class="cls-3" d="M7.86,9l.7.7h0L4,12.9l-.06,0,0-.06L7.14,8.33h0l.7.7Zm.67.71-.68-.68L4.12,12.79l4.41-3ZM7.16,8.36,4.1,12.77,7.84,9Z"/><polygon class="cls-3" points="6.38 8.69 6.39 8.68 6.41 8.7 6.4 8.71 5.65 9.21 5.64 9.22 5.63 9.19 5.64 9.18 6.38 8.69"/><path class="cls-4" d="M5.67,7.59l.5.73-.52.88C4.17,7.16,3.3,8.4,2.82,7,3.7,7.85,3.84,6.83,5.67,7.59Z"/><path class="cls-3" d="M5.66,9.19h0A2.88,2.88,0,0,0,3.78,7.85a1.13,1.13,0,0,1-1-.89l0-.06,0,0a1,1,0,0,0,1,.35,2.91,2.91,0,0,1,1.75.26h0v0h0a2.93,2.93,0,0,0-1.74-.25,1,1,0,0,1-1-.32,1.09,1.09,0,0,0,.94.81A3,3,0,0,1,5.66,9.19Z"/><path class="cls-3" d="M6.17,8.36A5.19,5.19,0,0,0,4,7.62c-.57-.08-1-.14-1.21-.66h0c.24.5.62.56,1.18.64a5.18,5.18,0,0,1,2.16.74Z"/><polygon class="cls-4" points="7.85 9.04 7.85 10.03 2.41 9.04 7.85 8.05 7.85 9.04 2.41 9.04 7.85 9.04"/><path class="cls-3" d="M7.87,9h0v1h0l-5.44-1h0L7.85,8h0V9Zm0,1v-1H2.56l5.28,1Zm0-1.94L2.56,9H7.84Z"/><polygon class="cls-3" points="7.06 7.75 7.08 7.75 7.07 7.78 7.05 7.78 6.18 7.6 6.16 7.6 6.17 7.57 6.18 7.57 7.06 7.75"/><path class="cls-4" d="M7.33,6.47l-.13.89-1,.23C6.58,5.1,5.08,5.36,5.77,4,5.75,5.26,6.57,4.65,7.33,6.47Z"/><path class="cls-3" d="M6.19,7.59h0a3,3,0,0,0-.35-2.28A1.09,1.09,0,0,1,5.76,4l0,0V4a1,1,0,0,0,.47,1A2.93,2.93,0,0,1,7.31,6.41h0A2.8,2.8,0,0,0,6.24,5a1,1,0,0,1-.48-.94A1.07,1.07,0,0,0,5.84,5.3,2.9,2.9,0,0,1,6.19,7.59Z"/><path class="cls-3" d="M7.14,7.37a5.12,5.12,0,0,0-1-2C5.8,4.86,5.56,4.55,5.76,4h0c-.18.53,0,.84.39,1.3a5.31,5.31,0,0,1,1,2.05Z"/><polygon class="cls-4" points="7.85 9.04 7.15 9.74 4 5.19 8.55 8.34 7.85 9.04 4 5.19 7.85 9.04"/><path class="cls-3" d="M7.86,9.05l-.7.7h0L4,5.2l0-.06.06,0L8.56,8.33h0l-.7.7Zm-.7.67L7.84,9,4.1,5.3,7.16,9.72ZM8.53,8.34,4.12,5.28,7.85,9Z"/><polygon class="cls-3" points="8.21 7.56 8.21 7.58 8.19 7.59 8.18 7.58 7.68 6.84 7.68 6.83 7.7 6.81 7.71 6.82 8.21 7.56"/><path class="cls-4" d="M9.3,6.84l-.73.62L7.7,6.83c2-1.48.79-2.35,2.24-2.82C9,4.89,10.06,5,9.3,6.84Z"/><path class="cls-3" d="M7.7,6.84h0v0h0A3,3,0,0,0,9.05,5a1.09,1.09,0,0,1,.88-1L10,4l0,0a.94.94,0,0,0-.36,1,2.9,2.9,0,0,1-.26,1.75v0h0v0A2.77,2.77,0,0,0,9.56,5a1,1,0,0,1,.33-1A1.08,1.08,0,0,0,9.07,5,2.88,2.88,0,0,1,7.7,6.84Z"/><path class="cls-3" d="M8.54,7.35A5.3,5.3,0,0,0,9.27,5.2c.08-.57.14-1,.66-1.21V4c-.5.24-.56.63-.64,1.19a5.27,5.27,0,0,1-.74,2.16Z"/><polygon class="cls-4" points="7.85 9.04 6.86 9.04 7.85 3.59 8.84 9.04 7.85 9.04 7.85 3.59 7.85 9.04"/><path class="cls-3" d="M7.85,9.05h-1l1-5.45V3.52l0,.07L8.86,9h-1Zm-1,0h1V3.74L6.88,9Zm2,0-1-5.29V9Z"/><polygon class="cls-3" points="9.15 8.24 9.14 8.26 9.11 8.25 9.12 8.24 9.29 7.36 9.29 7.35 9.32 7.35 9.32 7.37 9.15 8.24"/><path class="cls-4" d="M10.44,8.53l-1-.2-.16-1c2.49.39,2.23-1.1,3.58-.42C11.63,6.94,12.27,7.77,10.44,8.53Z"/><path class="cls-3" d="M9.3,7.38h0v0h0A2.91,2.91,0,0,0,11.58,7a1.11,1.11,0,0,1,1.31-.06l0,0h-.06a.93.93,0,0,0-1,.47A2.89,2.89,0,0,1,10.49,8.5h0l0,0h0a2.84,2.84,0,0,0,1.41-1.05,1,1,0,0,1,.94-.48A1.09,1.09,0,0,0,11.59,7,2.93,2.93,0,0,1,9.3,7.38Z"/><path class="cls-3" d="M9.53,8.33a5.33,5.33,0,0,0,2-1c.46-.35.78-.58,1.32-.39V7c-.53-.19-.84,0-1.3.38a5.09,5.09,0,0,1-2.05,1Z"/><polygon class="cls-4" points="7.85 9.04 7.15 8.34 11.7 5.19 8.55 9.74 7.85 9.04 11.7 5.19 7.85 9.04"/><path class="cls-3" d="M7.84,9.05h0l-.7-.69h0L11.7,5.18l.06,0,0,.06L8.57,9.75h0l-.69-.69h0Zm-.67-.71L7.85,9l3.74-3.74L7.17,8.34ZM8.55,9.72,11.61,5.3,7.87,9Z"/><polygon class="cls-3" points="9.33 9.39 9.32 9.4 9.3 9.37 9.31 9.37 10.05 8.87 10.07 8.86 10.08 8.89 10.07 8.89 9.33 9.39"/><path class="cls-4" d="M10.07,10.5l-.54-.79.53-.83c1.48,2,2.35.8,2.82,2.24C12,10.22,11.9,11.26,10.07,10.5Z"/><path class="cls-3" d="M10.05,8.89h0l0,0h0a2.91,2.91,0,0,0,1.86,1.36,1.13,1.13,0,0,1,1,.89l0,.05-.05,0a1,1,0,0,0-1-.36,2.8,2.8,0,0,1-1.75-.25h0v0h0a2.87,2.87,0,0,0,1.74.26.94.94,0,0,1,1,.32,1.08,1.08,0,0,0-.93-.81A3,3,0,0,1,10.05,8.89Z"/><path class="cls-3" d="M9.54,9.72a5.15,5.15,0,0,0,2.15.73c.57.09,1,.15,1.21.67h0c-.24-.51-.62-.56-1.19-.65a5.22,5.22,0,0,1-2.16-.73Z"/><polygon class="cls-4" points="7.85 9.04 7.85 8.05 13.3 9.04 7.85 10.03 7.85 9.04 13.3 9.04 7.85 9.04"/><path class="cls-3" d="M7.84,9h0V8h0L13.3,9h0L7.86,10h0v-1Zm0-1V9h5.28l-5.28-1Zm0,1.94,5.28-1H7.87Z"/><polygon class="cls-3" points="8.65 10.33 8.63 10.33 8.64 10.3 8.65 10.3 9.53 10.47 9.54 10.48 9.54 10.51 9.52 10.5 8.65 10.33"/><path class="cls-4" d="M8.36,11.56l.12-1,1-.12c-.4,2.49,1.1,2.22.41,3.58C10,12.81,9.12,13.39,8.36,11.56Z"/><path class="cls-3" d="M9.51,10.49v0h0a2.94,2.94,0,0,0,.35,2.27A1.13,1.13,0,0,1,10,14.08l0,.05v-.06a1,1,0,0,0-.47-1,2.84,2.84,0,0,1-1.06-1.42h0a2.85,2.85,0,0,0,1.05,1.41A1,1,0,0,1,10,14a1.07,1.07,0,0,0-.08-1.23A3,3,0,0,1,9.51,10.49Z"/><path class="cls-3" d="M8.56,10.71a5.11,5.11,0,0,0,1,2c.34.47.57.78.38,1.32h0c.19-.52,0-.83-.38-1.29a5.3,5.3,0,0,1-1-2Z"/><polygon class="cls-4" points="7.85 9.04 8.55 8.34 11.7 12.89 7.15 9.74 7.85 9.04 11.7 12.89 7.85 9.04"/><path class="cls-3" d="M7.85,9l.69-.69h0l3.15,4.55,0,.06-.06,0L7.15,9.75h0L7.84,9h0Zm.7-.66L7.87,9l3.74,3.73L8.55,8.36ZM7.17,9.74l4.42,3L7.85,9.06Z"/><path class="cls-4" d="M7.85,7.22A1.82,1.82,0,1,1,6,9,1.82,1.82,0,0,1,7.85,7.22Z"/><path class="cls-3" d="M7.85,7.21A1.83,1.83,0,0,1,9.68,9,1.83,1.83,0,1,1,6.56,7.75a1.79,1.79,0,0,1,1.29-.54Zm1.28.55a1.82,1.82,0,0,0-2.55,0A1.8,1.8,0,0,0,6.05,9a1.76,1.76,0,0,0,.53,1.27A1.81,1.81,0,0,0,9.66,9,1.84,1.84,0,0,0,9.13,7.76Z"/><path class="cls-3" d="M9.19,8.31c-.12.13-.18-.1-.59-.1s-.48.25-.55.2.35-.34.48-.36a1.13,1.13,0,0,1,.66.26Zm-.48.15-.33,0c-.1.14.12.33.23.33a.18.18,0,0,0,.1-.31Z"/><path class="cls-3" d="M8.17,8.61c0-.2.18-.23.44-.23s.38.2.48.25c-.11,0-.21-.17-.48-.17s-.26,0-.44.17v0Zm.05.05c-.05.07.2.16.38.16s.46-.28.34-.19a.59.59,0,0,1-.39.13c-.18,0-.27-.2-.33-.1Z"/><path class="cls-3" d="M8.78,8.76a.17.17,0,0,0,0-.32s.16.2,0,.32Zm-.93,1h0c.1,0,.14,0,.27,0s.44.18.62.11c-.37.15-.23.05-.89.05H7.77l.08-.13Zm1,.23a.33.33,0,0,0-.18-.26,2.11,2.11,0,0,1,.18.26Zm-1,.16h0c.42,0,.35-.08.89-.31a5,5,0,0,1-.89.18H7.77l.08.13Zm0-.61h0c.12,0,.15-.08.28-.08a.7.7,0,0,1,.4.12s0-.14-.18-.15-.08-.23-.23-.27c0,.07.05,0,.06.15S8,9.39,8,9.3c0,.13-.06.13-.15.13Z"/><path class="cls-3" d="M6.52,8.31c.11.13.18-.1.59-.1s.48.25.55.2-.35-.34-.48-.36a1.13,1.13,0,0,0-.66.26ZM7,8.46l.33,0c.1.14-.12.33-.24.33A.19.19,0,0,1,7,8.46Z"/><path class="cls-3" d="M7.54,8.61c0-.2-.18-.23-.45-.23s-.37.2-.47.25c.11,0,.21-.17.47-.17s.27,0,.45.17v0Zm0,.05c0,.07-.2.16-.38.16s-.46-.28-.35-.19a.64.64,0,0,0,.4.13c.18,0,.27-.2.33-.1Z"/><path class="cls-3" d="M6.93,8.76a.17.17,0,0,1,0-.32s-.17.2,0,.32Zm.92,1h0c-.1,0-.13,0-.26,0s-.45.18-.63.11c.38.15.23.05.89.05h.09l-.09-.13ZM6.9,10c0-.12,0-.17.18-.26A1.37,1.37,0,0,0,6.9,10Zm.95.16h0c-.41,0-.34-.08-.89-.31a5.4,5.4,0,0,0,.89.18h.09l-.09.13Zm0-.61h0c-.11,0-.14-.08-.28-.08a.69.69,0,0,0-.39.12s.05-.14.18-.15.08-.23.23-.27,0,0-.07.15.15.09.19,0c0,.13.06.13.14.13Z"/><path class="cls-3" d="M7.85,10.29c-.08,0-.29.05,0,.05S7.94,10.29,7.85,10.29Z"/><path class="cls-2" d="M24.43,3.33A15,15,0,0,0,15,0h-.18V3.33Z"/><path class="cls-2" d="M27.47,6.67H14.82V10H29.15A14.66,14.66,0,0,0,27.47,6.67Z"/><path class="cls-2" d="M29.91,13.33H14.82v3.34H29.91a15.54,15.54,0,0,0,0-3.34Z"/><path class="cls-2" d="M29.15,20H.85a14.66,14.66,0,0,0,1.68,3.33H27.47A14.87,14.87,0,0,0,29.15,20Z"/><path class="cls-2" d="M24.43,26.67H5.57A15,15,0,0,0,15,30H15A15,15,0,0,0,24.43,26.67Z"/></svg>