<svg id="Capa_1" data-name="Capa 1" xmlns="http://www.w3.org/2000/svg" viewBox="0 0 30 30"><defs><style>.cls-1{fill:#74acdf;}.cls-1,.cls-2,.cls-3,.cls-4,.cls-5{fill-rule:evenodd;}.cls-2{fill:#fff;}.cls-3{fill:#fab508;}.cls-4{fill:#85340a;}.cls-5{fill:#843511;}</style></defs><title>Mesa de trabajo 1</title><path class="cls-1" d="M15,30A15,15,0,1,0,0,15,15,15,0,0,0,15,30Z"/><path class="cls-2" d="M.85,20h28.3a15.13,15.13,0,0,0,0-10H.85a15.13,15.13,0,0,0,0,10Z"/><path class="cls-3" d="M14.81,15.08l1.71,3.72s0,.07.07.05,0-.09,0-.09l-1.42-3.84Zm.34,1.29h.33c-.08.56.22.71.17,1.32s.17.7.21,1-.09.44-.15.41.08-.15,0-.34a1.8,1.8,0,0,1-.3-1C15.48,17.25,15.13,16.93,15.15,16.37Z"/><path class="cls-4" d="M14.84,15.07l.6,1.31h.07a.62.62,0,0,0,0,.13l1.05,2.28h0s0,0,0,0,0-.05,0-.05h0l-1.42-3.84.06,0,1.42,3.84h0s0,.1,0,.13-.12-.07-.12-.07h0l-1-2.15a1.79,1.79,0,0,0,.09.35,1.62,1.62,0,0,1,.1.69,1.17,1.17,0,0,0,.11.72.92.92,0,0,1,.09.25.58.58,0,0,1,0,.34.18.18,0,0,1,0,.07.09.09,0,0,1-.06,0s0,0,0,0h0s0-.06,0-.12a.37.37,0,0,0,0-.24,1.5,1.5,0,0,0-.09-.18,1.32,1.32,0,0,1-.21-.82,1.44,1.44,0,0,0-.13-.66,1.74,1.74,0,0,1-.15-.72h.06a1.68,1.68,0,0,0,.15.7,1.4,1.4,0,0,1,.13.68,1.31,1.31,0,0,0,.21.79,1.07,1.07,0,0,1,.09.19.36.36,0,0,1,0,.28.1.1,0,0,1,0,0h0l0,0,0-.05a.46.46,0,0,0,0-.3,1.69,1.69,0,0,0-.08-.24,1.21,1.21,0,0,1-.13-.75,1.45,1.45,0,0,0-.09-.67,1.49,1.49,0,0,1-.1-.51l-.65-1.42Z"/><path class="cls-3" d="M14.79,15,15,19.09s0,.08.05.08.05-.08.05-.08L15.21,15Zm-.18,1.32.3.13c-.28.49-.05.74-.34,1.29s-.11.71-.18,1-.25.37-.29.32.13-.1.14-.31a1.86,1.86,0,0,1,.1-1C14.58,17.26,14.38,16.84,14.61,16.32Z"/><path class="cls-4" d="M14.83,15l.05,1.44h0l0,0,0,.11L15,19.09h0s0,.05,0,.05,0-.05,0-.05h0L15.17,15h.07l-.16,4.09h0s0,.11-.08.11h0c-.08,0-.08-.11-.08-.11h0l-.09-2.36a1.06,1.06,0,0,0-.05.35,1.56,1.56,0,0,1-.18.67,1.33,1.33,0,0,0-.17.71.83.83,0,0,1,0,.27.61.61,0,0,1-.17.3l-.07,0a.08.08,0,0,1-.07,0s0,0,0,0h0s0-.07,0-.11a.45.45,0,0,0,.1-.22,1.56,1.56,0,0,0,0-.2,1.28,1.28,0,0,1,.12-.84,1.51,1.51,0,0,0,.13-.65,1.79,1.79,0,0,1,.13-.73l.06,0a1.92,1.92,0,0,0-.13.71,1.51,1.51,0,0,1-.14.68,1.37,1.37,0,0,0-.11.81.72.72,0,0,1,0,.2.4.4,0,0,1-.12.26.07.07,0,0,1,0,0h0l.05,0a.56.56,0,0,0,.15-.27,1,1,0,0,0,0-.25,1.28,1.28,0,0,1,.18-.74,1.5,1.5,0,0,0,.16-.65,1.47,1.47,0,0,1,.11-.51L14.76,15Z"/><path class="cls-3" d="M14.81,14.92l-1.42,3.84s0,.07,0,.09.07-.05.07-.05l1.71-3.72Zm-.67,1.15.23.24c-.45.34-.34.66-.81,1.06s-.38.61-.55.83-.37.25-.39.19.16-.05.25-.23a1.74,1.74,0,0,1,.49-.91C13.75,16.92,13.72,16.46,14.14,16.07Z"/><path class="cls-4" d="M14.84,14.93l-.5,1.36h0l0,0-.1.08-.87,2.36h0s0,0,0,.05h0s0,0,0,0h0l1.71-3.71.06,0-1.71,3.72h0s0,.1-.12.07h0c-.07,0,0-.12,0-.13h0l.82-2.22a1.59,1.59,0,0,0-.18.3,1.51,1.51,0,0,1-.42.56,1.25,1.25,0,0,0-.43.59.9.9,0,0,1-.12.24.57.57,0,0,1-.26.22h-.09l-.07,0s0,0,0,0h0s0-.07.07-.1a.3.3,0,0,0,.18-.16,1.13,1.13,0,0,0,.07-.18,1.32,1.32,0,0,1,.43-.73,1.44,1.44,0,0,0,.37-.56,1.76,1.76,0,0,1,.41-.62l0,.05a1.59,1.59,0,0,0-.39.6,1.53,1.53,0,0,1-.39.57A1.26,1.26,0,0,0,13,18a2,2,0,0,1-.07.19.4.4,0,0,1-.21.19l0,0h.1a.62.62,0,0,0,.23-.19.8.8,0,0,0,.11-.23,1.3,1.3,0,0,1,.45-.62,1.39,1.39,0,0,0,.4-.54,1.53,1.53,0,0,1,.3-.43l.54-1.46Z"/><path class="cls-3" d="M14.85,14.86l-2.78,3s-.05.05,0,.09.09,0,.09,0l3-2.79Zm-1.06.8.13.3c-.55.15-.57.49-1.16.68s-.58.41-.83.56-.43.09-.43,0,.17,0,.32-.12.32-.5.8-.65S13.26,15.86,13.79,15.66Z"/><path class="cls-4" d="M14.88,14.88l-1,1.06h0V16l-.11,0L12.1,17.88h0s0,0,0,0,0,0,0,0h0l3-2.78.05.05-3,2.78h0s-.08.08-.14,0,0-.14,0-.14h0l1.61-1.73a1.67,1.67,0,0,0-.29.21,1.58,1.58,0,0,1-.6.36,1.21,1.21,0,0,0-.62.38,1.2,1.2,0,0,1-.2.18.59.59,0,0,1-.33.09l-.08,0a.09.09,0,0,1-.06,0s0,0,0,0,0-.06.11-.06a.4.4,0,0,0,.22-.08,1,1,0,0,0,.13-.15,1.35,1.35,0,0,1,.68-.51,1.37,1.37,0,0,0,.56-.37,1.74,1.74,0,0,1,.61-.42l0,.06a1.86,1.86,0,0,0-.59.4,1.42,1.42,0,0,1-.58.39A1.34,1.34,0,0,0,12,17l-.13.16a.41.41,0,0,1-.27.09h0l.07,0a.58.58,0,0,0,.29-.09,1,1,0,0,0,.19-.16,1.14,1.14,0,0,1,.64-.4,1.61,1.61,0,0,0,.58-.35,1.33,1.33,0,0,1,.44-.28l1.06-1.15Z"/><path class="cls-4" d="M15.26,16.46c0,.55.33.79.27,1.28.14-.39-.18-.69-.17-1.27Zm-.35-1.41.18-.08,1,2.63Z"/><path class="cls-4" d="M14.68,16.45c-.18.51,0,.85-.24,1.29.28-.31.1-.72.33-1.24ZM14.9,15l.1,2.8.1-2.8Z"/><path class="cls-4" d="M14.15,16.22c-.37.4-.32.79-.71,1.1.37-.19.36-.63.78-1ZM14.9,15l.19.08L13.92,17.6Z"/><path class="cls-4" d="M13.75,15.8c-.5.23-.6.61-1.08.74.41,0,.57-.44,1.11-.64Zm1.17-.87.15.14L13,17Z"/><path class="cls-3" d="M14.92,14.81,11.2,16.52s-.07,0,0,.07.09,0,.09,0l3.84-1.42Zm-1.29.34v.33c-.56-.08-.71.22-1.32.17s-.7.17-1,.21-.44-.09-.41-.15.15.08.34,0a1.8,1.8,0,0,1,1-.3C12.75,15.48,13.07,15.13,13.63,15.15Z"/><path class="cls-4" d="M14.93,14.84l-1.31.6h0v.07H13.5l-2.28,1.05h0s0,0,0,0,.05,0,.05,0h0l3.84-1.42,0,.06-3.84,1.42h0s-.1,0-.13,0,.07-.12.07-.12h0l2.15-1a1.79,1.79,0,0,0-.35.09,1.62,1.62,0,0,1-.69.1,1.12,1.12,0,0,0-.71.11,1.14,1.14,0,0,1-.26.09.58.58,0,0,1-.34,0,.18.18,0,0,1-.07,0,.09.09,0,0,1,0-.06s0,0,0,0h0s.06,0,.12,0a.37.37,0,0,0,.24,0l.18-.09a1.32,1.32,0,0,1,.82-.21,1.44,1.44,0,0,0,.66-.13,1.74,1.74,0,0,1,.72-.15v.06a1.68,1.68,0,0,0-.7.15,1.4,1.4,0,0,1-.68.13,1.31,1.31,0,0,0-.79.21l-.19.09a.36.36,0,0,1-.28,0h0l0,0,0,0a.46.46,0,0,0,.3,0,1,1,0,0,0,.24-.09,1.31,1.31,0,0,1,.75-.12,1.38,1.38,0,0,0,.66-.09,1.6,1.6,0,0,1,.52-.1l1.42-.65Z"/><path class="cls-3" d="M15,14.79,10.91,15s-.08,0-.08.05.08.05.08.05L15,15.2Zm-1.32-.18-.13.3c-.49-.28-.74-.05-1.29-.34s-.71-.11-1-.18-.37-.25-.32-.29.1.13.31.14a1.79,1.79,0,0,1,1,.11C12.74,14.58,13.16,14.38,13.68,14.61Z"/><path class="cls-4" d="M15,14.83l-1.44.05h0l0,0-.11,0L10.91,15h0s0,0,0,0,0,0,0,0h0l4.09.15v.07l-4.09-.16h0s-.11,0-.11-.08.11-.08.11-.08h0l2.36-.09a1.06,1.06,0,0,0-.35-.05,1.56,1.56,0,0,1-.67-.18,1.33,1.33,0,0,0-.71-.17.83.83,0,0,1-.27,0,.61.61,0,0,1-.3-.17l-.05-.07a.08.08,0,0,1,0-.07s0,0,0,0h0s.07,0,.11,0h0a.45.45,0,0,0,.22.1h.2a1.28,1.28,0,0,1,.84.12,1.51,1.51,0,0,0,.65.13,1.79,1.79,0,0,1,.73.13l0,.06a1.92,1.92,0,0,0-.71-.13,1.51,1.51,0,0,1-.68-.14,1.37,1.37,0,0,0-.81-.11.72.72,0,0,1-.2,0,.4.4,0,0,1-.26-.12h0a.07.07,0,0,1,0,0h0v0l0,.05a.56.56,0,0,0,.27.15,1,1,0,0,0,.24,0,1.3,1.3,0,0,1,.75.18,1.5,1.5,0,0,0,.65.16,1.47,1.47,0,0,1,.51.11L15,14.76Z"/><path class="cls-3" d="M15.08,14.81l-3.84-1.42s-.07,0-.09,0,0,.07,0,.07l3.72,1.71Zm-1.15-.67-.24.23c-.34-.45-.66-.34-1.06-.81S12,13.18,11.8,13s-.25-.37-.19-.39.05.16.23.25a1.74,1.74,0,0,1,.91.49C13.08,13.75,13.54,13.72,13.93,14.14Z"/><path class="cls-4" d="M15.07,14.84l-1.36-.5h0l-.05,0-.08-.1-2.36-.87h0s0,0-.05,0,0,0,0,0h0l3.71,1.71,0,.06-3.72-1.71h0s-.1,0-.07-.12.12,0,.13,0h0l2.22.82a1.59,1.59,0,0,0-.3-.18,1.51,1.51,0,0,1-.56-.42,1.25,1.25,0,0,0-.59-.43.77.77,0,0,1-.24-.12.57.57,0,0,1-.22-.26h0a.28.28,0,0,1,0-.09.14.14,0,0,1,0-.07h0l0,0h0c.05,0,.07,0,.1.07h0a.3.3,0,0,0,.16.18,1.13,1.13,0,0,0,.18.07,1.38,1.38,0,0,1,.74.43h0a1.34,1.34,0,0,0,.55.37,1.76,1.76,0,0,1,.62.41l0,0a1.59,1.59,0,0,0-.6-.39,1.53,1.53,0,0,1-.57-.39h0A1.23,1.23,0,0,0,12,13a2,2,0,0,1-.19-.07.4.4,0,0,1-.19-.21h0l0,0h0a0,0,0,0,0,0,0s0,0,0,.07h0a.57.57,0,0,0,.2.23.65.65,0,0,0,.22.11,1.3,1.3,0,0,1,.62.45,1.39,1.39,0,0,0,.54.4,1.35,1.35,0,0,1,.43.3l1.46.54Z"/><path class="cls-3" d="M15.15,14.85l-3-2.78s-.05-.05-.09,0,0,.09,0,.09l2.79,3Zm-.81-1.06-.3.13c-.15-.55-.49-.57-.68-1.16s-.41-.58-.56-.83-.09-.43,0-.43,0,.17.12.32.5.32.65.8S14.14,13.26,14.34,13.79Z"/><path class="cls-4" d="M15.12,14.88l-1.06-1v0H14a.76.76,0,0,1,0-.11l-1.85-1.72h0s0,0,0,0,0,0,0,0h0l2.78,3-.05.05-2.78-3h0S12,12.09,12,12h0c.06-.06.14,0,.14,0h0l1.73,1.61a1.67,1.67,0,0,0-.21-.29,1.58,1.58,0,0,1-.36-.6,1.21,1.21,0,0,0-.38-.62,1.2,1.2,0,0,1-.18-.2.68.68,0,0,1-.09-.33.19.19,0,0,1,0-.08.09.09,0,0,1,0-.06h0c.06,0,.06,0,.06.11a.33.33,0,0,0,.08.22,1,1,0,0,0,.15.13,1.35,1.35,0,0,1,.51.68,1.37,1.37,0,0,0,.37.56,1.74,1.74,0,0,1,.42.61l-.06,0a1.73,1.73,0,0,0-.41-.59,1.58,1.58,0,0,1-.38-.58A1.34,1.34,0,0,0,13,12l-.16-.13a.41.41,0,0,1-.09-.27v0h0v0a.64.64,0,0,0,0,.07.58.58,0,0,0,.09.29,1,1,0,0,0,.16.19,1.14,1.14,0,0,1,.4.64,1.61,1.61,0,0,0,.35.58,1.33,1.33,0,0,1,.28.44l1.15,1.06Z"/><path class="cls-4" d="M13.54,15.26c-.55,0-.79.33-1.28.27.39.14.69-.18,1.27-.17ZM15,14.9l.07.19-2.63,1Z"/><path class="cls-4" d="M13.55,14.68c-.51-.18-.85,0-1.29-.24.31.28.71.1,1.24.33ZM15,14.9l-2.81.1,2.81.1Z"/><path class="cls-4" d="M13.78,14.15c-.4-.37-.79-.32-1.1-.71.19.37.63.36,1,.78ZM15,14.9l-.08.19L12.4,13.92Z"/><path class="cls-4" d="M14.2,13.75c-.23-.5-.61-.6-.74-1.08,0,.41.44.57.64,1.11Zm.87,1.17-.14.15L13,13Z"/><path class="cls-3" d="M15.19,14.92,13.48,11.2s0-.07-.07,0,0,.09,0,.09l1.42,3.84Zm-.34-1.29h-.33c.08-.56-.22-.71-.17-1.32s-.17-.7-.21-1,.09-.44.14-.41-.07.15,0,.34a1.8,1.8,0,0,1,.3,1C14.52,12.75,14.87,13.07,14.85,13.63Z"/><path class="cls-4" d="M15.16,14.93l-.6-1.31h-.07a.62.62,0,0,0,0-.13l-1.05-2.28h0s0,0,0,0,0,.05,0,.05h0l1.42,3.84-.06,0-1.42-3.84h0s0-.1,0-.13.12.07.12.07h0l1,2.15a1.79,1.79,0,0,0-.09-.35,1.62,1.62,0,0,1-.1-.69,1.17,1.17,0,0,0-.11-.72.92.92,0,0,1-.09-.25.58.58,0,0,1,0-.34.18.18,0,0,1,0-.07l.06,0h0s0,.06,0,.12a.37.37,0,0,0,0,.24,1.5,1.5,0,0,0,.09.18,1.32,1.32,0,0,1,.21.82,1.44,1.44,0,0,0,.13.66,1.74,1.74,0,0,1,.15.72h-.06a1.68,1.68,0,0,0-.15-.7,1.4,1.4,0,0,1-.13-.68,1.31,1.31,0,0,0-.21-.79c0-.07-.07-.13-.09-.19a.36.36,0,0,1,0-.28.1.1,0,0,1,0,0h0l0,0,0,0a.46.46,0,0,0,0,.3,1,1,0,0,0,.09.24,1.31,1.31,0,0,1,.12.75,1.45,1.45,0,0,0,.09.67,1.49,1.49,0,0,1,.1.51l.65,1.42Z"/><path class="cls-3" d="M15.21,15l-.16-4.09s0-.08-.05-.08-.05.08-.05.08L14.79,15Zm.18-1.32-.3-.13c.28-.49.05-.74.34-1.29s.11-.71.18-1,.25-.37.29-.32-.13.1-.14.31a1.86,1.86,0,0,1-.1,1C15.42,12.74,15.62,13.16,15.39,13.68Z"/><path class="cls-4" d="M15.17,15l-.05-1.44h0l0,0,0-.11L15,10.91h0s0-.05,0-.05,0,.05,0,.05h0L14.83,15h-.07l.16-4.09h0s0-.11.08-.11h0c.08,0,.08.11.08.11h0l.09,2.36a1.06,1.06,0,0,0,.05-.35,1.56,1.56,0,0,1,.18-.67,1.33,1.33,0,0,0,.17-.71.83.83,0,0,1,0-.27.61.61,0,0,1,.17-.3l.07-.05h.07l0,0h0s0,.07,0,.11a.45.45,0,0,0-.1.22,1.56,1.56,0,0,0,0,.2,1.28,1.28,0,0,1-.12.84,1.51,1.51,0,0,0-.13.65,1.79,1.79,0,0,1-.13.73l-.06,0a1.92,1.92,0,0,0,.13-.71,1.51,1.51,0,0,1,.14-.68,1.37,1.37,0,0,0,.11-.81.72.72,0,0,1,0-.2.4.4,0,0,1,.12-.26l0,0h0l-.05,0a.56.56,0,0,0-.15.27,1,1,0,0,0,0,.25,1.17,1.17,0,0,1-.18.73,1.57,1.57,0,0,0-.16.66,1.47,1.47,0,0,1-.11.51L15.24,15Z"/><path class="cls-3" d="M15.19,15.08l1.42-3.84s0-.07,0-.09-.07,0-.07,0l-1.71,3.72Zm.67-1.15-.23-.24c.45-.34.34-.66.81-1.06s.38-.61.55-.83.37-.25.39-.19-.16.05-.25.23a1.74,1.74,0,0,1-.49.91C16.25,13.08,16.28,13.54,15.86,13.93Z"/><path class="cls-4" d="M15.16,15.07l.5-1.36h0l0-.05.1-.08.87-2.36h0s0,0,0-.05h0s0,0,0,0h0l-1.71,3.71-.06,0,1.71-3.72h0s0-.1.12-.07h0c.07,0,0,.12,0,.13h0l-.82,2.22a1.59,1.59,0,0,0,.18-.3,1.51,1.51,0,0,1,.42-.56,1.25,1.25,0,0,0,.43-.59.77.77,0,0,1,.12-.24.57.57,0,0,1,.26-.22h.09l.07,0h0l0,0h0c0,.05,0,.07-.07.1a.33.33,0,0,0-.18.16.61.61,0,0,0-.07.18,1.38,1.38,0,0,1-.43.74,1.34,1.34,0,0,0-.37.55,1.76,1.76,0,0,1-.41.62l0,0a1.59,1.59,0,0,0,.39-.6,1.53,1.53,0,0,1,.39-.57A1.26,1.26,0,0,0,17,12a2,2,0,0,1,.07-.19.4.4,0,0,1,.21-.19l0,0h-.1a.57.57,0,0,0-.23.2.65.65,0,0,0-.11.22,1.3,1.3,0,0,1-.45.62,1.44,1.44,0,0,0-.4.53,1.44,1.44,0,0,1-.3.44l-.54,1.46Z"/><path class="cls-3" d="M15.15,15.14l2.78-3s.05-.05,0-.09-.09,0-.09,0l-3,2.79Zm1.06-.8-.13-.3c.55-.15.57-.49,1.16-.68s.58-.41.83-.56.43-.09.43,0-.17,0-.32.12-.32.5-.8.65S16.74,14.14,16.21,14.34Z"/><path class="cls-4" d="M15.12,15.12l1-1.06h0V14l.11,0,1.72-1.85h0s0,0,0,0,0,0,0,0h0l-3,2.79-.05-.05,3-2.78h0s.08-.08.14,0h0c.06.06,0,.14,0,.14h0L16.34,13.9a1.67,1.67,0,0,0,.29-.21,1.58,1.58,0,0,1,.6-.36,1.21,1.21,0,0,0,.62-.38,1.2,1.2,0,0,1,.2-.18.68.68,0,0,1,.33-.09l.08,0a.09.09,0,0,1,.06,0,.06.06,0,0,1,0,0c0,.06-.05.06-.11.06a.4.4,0,0,0-.22.08,1,1,0,0,0-.13.15,1.35,1.35,0,0,1-.68.51,1.37,1.37,0,0,0-.56.37,1.74,1.74,0,0,1-.61.42l0-.06a1.73,1.73,0,0,0,.59-.41,1.58,1.58,0,0,1,.58-.38A1.34,1.34,0,0,0,18,13l.13-.16a.41.41,0,0,1,.27-.09h0l-.07,0a.58.58,0,0,0-.29.09,1,1,0,0,0-.19.16,1.14,1.14,0,0,1-.64.4,1.61,1.61,0,0,0-.58.35,1.33,1.33,0,0,1-.44.28l-1.06,1.15Z"/><path class="cls-4" d="M14.74,13.54c0-.55-.33-.79-.27-1.28-.14.39.18.69.17,1.27ZM15.1,15l-.19.08-1-2.63Z"/><path class="cls-4" d="M15.32,13.55c.18-.51,0-.85.24-1.29-.27.31-.1.72-.33,1.24ZM15.1,15l-.1-2.8L14.9,15Z"/><path class="cls-4" d="M15.85,13.78c.37-.4.32-.79.71-1.1-.37.19-.36.63-.78,1ZM15.1,15,14.91,15l1.17-2.56Z"/><path class="cls-4" d="M16.25,14.2c.5-.23.6-.61,1.08-.74-.41,0-.57.44-1.11.64Zm-1.17.87-.15-.14L17,13Z"/><path class="cls-3" d="M15.08,15.19l3.72-1.71s.07,0,.05-.07-.09,0-.09,0l-3.84,1.42Zm1.29-.34v-.33c.56.08.71-.22,1.32-.17s.7-.17,1-.21.44.09.41.15-.15-.08-.34,0a1.8,1.8,0,0,1-1,.3C17.25,14.52,16.93,14.87,16.37,14.85Z"/><path class="cls-4" d="M15.07,15.16l1.31-.6h0v-.07h.13l2.28-1.05h0s0,0,0,0-.05,0-.05,0h0l-3.84,1.42,0-.06,3.84-1.42h0s.1,0,.13,0-.07.12-.07.12h0l-2.15,1a1.79,1.79,0,0,0,.35-.09,1.62,1.62,0,0,1,.69-.1,1.17,1.17,0,0,0,.72-.11.92.92,0,0,1,.25-.09.58.58,0,0,1,.34,0,.18.18,0,0,1,.07,0,.09.09,0,0,1,0,.06s0,0,0,0h0s-.06,0-.12,0a.37.37,0,0,0-.24,0l-.18.09a1.32,1.32,0,0,1-.82.21,1.44,1.44,0,0,0-.66.13,1.74,1.74,0,0,1-.72.15v-.06a1.68,1.68,0,0,0,.7-.15,1.4,1.4,0,0,1,.68-.13,1.31,1.31,0,0,0,.79-.21l.19-.09a.36.36,0,0,1,.28,0h0l0,0-.05,0a.46.46,0,0,0-.3,0,1,1,0,0,0-.24.09,1.31,1.31,0,0,1-.75.12,1.38,1.38,0,0,0-.66.09,1.6,1.6,0,0,1-.52.1l-1.42.65Z"/><path class="cls-3" d="M15,15.21l4.09-.16s.08,0,.08-.05-.08-.05-.08-.05L15,14.8Zm1.32.18.13-.31c.49.29.74.06,1.29.35s.71.11,1,.18.37.25.32.29-.1-.13-.31-.14a1.86,1.86,0,0,1-1-.1C17.26,15.42,16.84,15.62,16.32,15.39Z"/><path class="cls-4" d="M15,15.17l1.44-.05h0l0,0,.11,0L19.09,15h0s.05,0,.05,0-.05,0-.05,0h0L15,14.83v-.07l4.09.16h0s.11,0,.11.08-.11.08-.11.08h0l-2.36.09a1.06,1.06,0,0,0,.35.05,1.72,1.72,0,0,1,.67.18,1.33,1.33,0,0,0,.71.17.83.83,0,0,1,.27,0,.61.61,0,0,1,.3.17l0,.07a.08.08,0,0,1,0,.07s0,0,0,0h0s-.07,0-.11,0h0a.45.45,0,0,0-.22-.1h-.2a1.28,1.28,0,0,1-.84-.12,1.51,1.51,0,0,0-.65-.13,1.79,1.79,0,0,1-.73-.13l0-.06a1.92,1.92,0,0,0,.71.13,1.51,1.51,0,0,1,.68.14,1.37,1.37,0,0,0,.81.11.72.72,0,0,1,.2,0,.4.4,0,0,1,.26.12h0a.07.07,0,0,1,0,0h0v0l0-.05a.56.56,0,0,0-.27-.15,1,1,0,0,0-.24,0,1.26,1.26,0,0,1-.74-.18,1.57,1.57,0,0,0-.66-.16,1.47,1.47,0,0,1-.51-.11L15,15.24Z"/><path class="cls-3" d="M14.92,15.19l3.84,1.42s.07,0,.09,0-.05-.07-.05-.07l-3.72-1.71Zm1.15.67.24-.23c.34.45.66.34,1.06.81s.61.38.83.55.25.37.19.39-.05-.16-.23-.25a1.74,1.74,0,0,1-.91-.49C16.92,16.25,16.46,16.28,16.07,15.86Z"/><path class="cls-4" d="M14.93,15.16l1.36.5h0l0,0,.08.1,2.36.87h0s0,0,.05,0h0s0,0,0,0h0l-3.71-1.71,0-.06,3.72,1.71h0s.1,0,.07.12h0c0,.07-.12,0-.13,0h0l-2.22-.82a1.59,1.59,0,0,0,.3.18,1.51,1.51,0,0,1,.56.42,1.25,1.25,0,0,0,.59.43.77.77,0,0,1,.24.12.57.57,0,0,1,.22.26h0a.28.28,0,0,1,0,.09.14.14,0,0,1,0,.07h0l0,0h0s-.07,0-.1-.07a.3.3,0,0,0-.16-.18,1.13,1.13,0,0,0-.18-.07,1.38,1.38,0,0,1-.74-.43,1.34,1.34,0,0,0-.55-.37,1.76,1.76,0,0,1-.62-.41l.05,0a1.59,1.59,0,0,0,.6.39,1.53,1.53,0,0,1,.57.39A1.26,1.26,0,0,0,18,17a2,2,0,0,1,.19.07.4.4,0,0,1,.19.21l0,0h0a0,0,0,0,0,0,0s0,0,0-.07h0a.62.62,0,0,0-.19-.23.8.8,0,0,0-.23-.11,1.3,1.3,0,0,1-.62-.45,1.5,1.5,0,0,0-.54-.4,1.53,1.53,0,0,1-.43-.3l-1.46-.54Z"/><path class="cls-3" d="M14.86,15.15l3,2.78s.05.05.09,0,0-.09,0-.09l-2.78-3Zm.8,1.06.3-.13c.15.55.49.57.68,1.16s.41.58.56.82.09.44,0,.44,0-.17-.12-.32-.5-.32-.65-.8S15.86,16.74,15.66,16.21Z"/><path class="cls-4" d="M14.88,15.12l1.06,1v0H16a.76.76,0,0,1,0,.11l1.85,1.71h0s0,0,0,0,0,0,0,0h0l-2.79-3,.05-.05,2.78,3h0s.08.08,0,.14h0c-.06.06-.14,0-.14,0h0L16.1,16.34a1.67,1.67,0,0,0,.21.29,1.58,1.58,0,0,1,.36.6,1.21,1.21,0,0,0,.38.62,1.2,1.2,0,0,1,.18.2.59.59,0,0,1,.09.33.19.19,0,0,1,0,.08.09.09,0,0,1,0,.06h0c-.06,0-.06-.05-.06-.11a.33.33,0,0,0-.08-.22,1,1,0,0,0-.15-.13,1.35,1.35,0,0,1-.51-.68,1.37,1.37,0,0,0-.37-.56,1.74,1.74,0,0,1-.42-.61l.06,0a1.73,1.73,0,0,0,.41.59,1.58,1.58,0,0,1,.38.58A1.34,1.34,0,0,0,17,18l.16.13a.41.41,0,0,1,.09.27v0h0v0a.14.14,0,0,0,0-.07.58.58,0,0,0-.09-.29,1,1,0,0,0-.16-.19,1.14,1.14,0,0,1-.4-.64,1.48,1.48,0,0,0-.35-.58,1.33,1.33,0,0,1-.28-.44l-1.15-1.06Z"/><path class="cls-4" d="M16.46,14.74c.55,0,.79-.33,1.28-.27-.39-.14-.69.18-1.27.17ZM15,15.1,15,14.91l2.63-1Z"/><path class="cls-4" d="M16.45,15.32c.51.18.85,0,1.29.24-.31-.28-.71-.1-1.24-.33ZM15,15.1l2.8-.1L15,14.9Z"/><path class="cls-4" d="M16.22,15.85c.4.37.79.32,1.1.71-.19-.37-.63-.36-1-.78ZM15,15.1l.08-.19,2.56,1.17Z"/><path class="cls-4" d="M15.8,16.25c.23.5.61.6.74,1.08,0-.41-.44-.57-.64-1.11Zm-.87-1.17.14-.15L17,17Z"/><path class="cls-3" d="M16.67,15A1.67,1.67,0,1,1,15,13.33,1.67,1.67,0,0,1,16.67,15Z"/><path class="cls-4" d="M16.7,15A1.7,1.7,0,1,1,15,13.3h0A1.71,1.71,0,0,1,16.7,15Zm-.55,1.15A1.59,1.59,0,0,0,16.63,15h0A1.64,1.64,0,0,0,15,13.37h0a1.63,1.63,0,1,0,1.15,2.78Z"/><path class="cls-5" d="M15.57,14.64a.33.33,0,0,0-.29.16.54.54,0,0,0,.61,0,.47.47,0,0,0-.32-.14Zm0,0a.26.26,0,0,1,.23.1.35.35,0,0,1-.47,0A.28.28,0,0,1,15.57,14.67Z"/><path class="cls-4" d="M15.59,14.56a.31.31,0,0,0-.28.11.35.35,0,0,1-.13.06s0,0,0,0l.15-.1a.3.3,0,0,1,.23-.07c.23,0,.36.2.38.18S15.85,14.56,15.59,14.56Z"/><path class="cls-4" d="M16.05,14.64a.66.66,0,0,0-.87-.1.67.67,0,0,0-.1.21.63.63,0,0,0,.14.47l-.05,0a.87.87,0,0,1-.11-.58.83.83,0,0,1,0-.15A.62.62,0,0,1,16.05,14.64Z"/><path class="cls-4" d="M15.68,14.77a.11.11,0,0,1-.12.11.11.11,0,0,1-.11-.11.12.12,0,0,1,.11-.12A.12.12,0,0,1,15.68,14.77Z"/><path class="cls-4" d="M15.9,14.85a.52.52,0,0,1-.57.07c-.12-.07-.12-.1-.1-.1s0,0,.15.08A.66.66,0,0,0,15.9,14.85Z"/><path class="cls-4" d="M14.75,15.23a.12.12,0,0,0,0,.23.11.11,0,0,0,.09-.05.3.3,0,0,0,.14,0h0a.24.24,0,0,0,.13,0,.14.14,0,0,0,.1.05.11.11,0,0,0,.11-.12.12.12,0,0,0-.09-.11.08.08,0,0,1,.05.07.07.07,0,0,1-.08.08.07.07,0,0,1-.07-.07.22.22,0,0,1-.16.1.18.18,0,0,1-.16-.1.08.08,0,0,1-.08.07.08.08,0,0,1-.08-.08A.07.07,0,0,1,14.75,15.23Z"/><path class="cls-4" d="M14.87,15.57c-.13,0-.18.12-.29.2l.2-.13c.09-.05.17,0,.22,0h0c.05,0,.13-.06.22,0l.2.13c-.11-.08-.16-.2-.29-.2l-.13,0h0Z"/><path class="cls-4" d="M14.83,15.72l-.22,0c.23-.06.29,0,.39,0h0c.1,0,.15-.08.38,0a.66.66,0,0,0-.38,0h0Z"/><path class="cls-4" d="M14.62,15.76h0c.27,0,.14.18.42.18h0c.28,0,.15-.16.42-.18-.28,0-.19.14-.42.14h0C14.78,15.91,14.85,15.76,14.62,15.76Z"/><path class="cls-4" d="M15.23,16.18a.23.23,0,0,0-.46,0,.24.24,0,0,1,.46,0Z"/><path class="cls-4" d="M14,14.64a.67.67,0,0,1,.88-.1.48.48,0,0,1,.09.21.62.62,0,0,1-.13.47l0,0a.86.86,0,0,0,.1-.58.83.83,0,0,0,0-.15A.62.62,0,0,0,14,14.64Z"/><path class="cls-4" d="M14.42,14.56a.34.34,0,0,1,.29.11.25.25,0,0,0,.13.06s0,0,0,0a.53.53,0,0,1-.15-.1.32.32,0,0,0-.24-.07c-.22,0-.35.2-.38.18A.41.41,0,0,1,14.42,14.56Z"/><path class="cls-5" d="M14.42,14.64a.33.33,0,0,0-.29.16.53.53,0,0,0,.6,0,.43.43,0,0,0-.31-.14Zm0,0c.11,0,.21.05.22.1a.34.34,0,0,1-.46,0A.28.28,0,0,1,14.42,14.67Z"/><path class="cls-4" d="M14.55,14.77a.11.11,0,0,1-.12.11.11.11,0,0,1-.11-.11.12.12,0,0,1,.11-.12A.12.12,0,0,1,14.55,14.77Z"/><path class="cls-4" d="M14.12,14.85a.5.5,0,0,0,.56.07c.13-.07.13-.1.1-.1a1.23,1.23,0,0,0-.15.08A.64.64,0,0,1,14.12,14.85Z"/></svg>