<svg id="Capa_1" data-name="Capa 1" xmlns="http://www.w3.org/2000/svg" viewBox="0 0 30 30"><defs><style>.cls-1{fill:#fff;}.cls-1,.cls-2,.cls-3{fill-rule:evenodd;}.cls-2{fill:#d6212a;}.cls-3{fill:#233f88;}</style></defs><title>Mesa de trabajo 7</title><path class="cls-1" d="M15,30A15,15,0,1,0,0,15,15,15,0,0,0,15,30Z"/><path class="cls-2" d="M22.94,2.27H7.06a15,15,0,0,1,15.88,0Z"/><path class="cls-2" d="M27.63,6.91H2.37A14.82,14.82,0,0,1,4.18,4.62H25.82A14.82,14.82,0,0,1,27.63,6.91Z"/><path class="cls-2" d="M29.6,11.54H.4a16.1,16.1,0,0,1,.74-2.29H28.86A16.1,16.1,0,0,1,29.6,11.54Z"/><path class="cls-2" d="M30,16.18H.05c0-.39,0-.78,0-1.18s0-.75,0-1.12H30c0,.37,0,.74,0,1.12S30,15.79,30,16.18Z"/><path class="cls-2" d="M28.83,20.81H1.17a14.61,14.61,0,0,1-.75-2.29H29.58A14.61,14.61,0,0,1,28.83,20.81Z"/><path class="cls-2" d="M25.76,25.45H4.24a14.56,14.56,0,0,1-1.83-2.3H27.59A14.56,14.56,0,0,1,25.76,25.45Z"/><path class="cls-2" d="M7,27.71H23A15,15,0,0,1,7,27.71Z"/><path class="cls-3" d="M15,0V16.18H.05c0-.39,0-.78,0-1.18A15,15,0,0,1,15,0Z"/><path class="cls-1" d="M.18,12.64H.85l-.57.42.22.67-.42-.31C.11,13.16.14,12.9.18,12.64Z"/><polygon class="cls-1" points="3.79 5.56 4 6.23 4.71 6.23 4.14 6.64 4.36 7.31 3.79 6.9 3.22 7.31 3.44 6.64 2.87 6.23 3.57 6.23 3.79 5.56"/><path class="cls-1" d="M2,7.51l.1.3h.7l-.57.41.22.67-.57-.41-.57.41,0-.11A12.66,12.66,0,0,1,2,7.51Z"/><polygon class="cls-1" points="3.79 8.77 4 9.44 4.71 9.44 4.14 9.85 4.36 10.52 3.79 10.1 3.22 10.52 3.44 9.85 2.87 9.44 3.57 9.44 3.79 8.77"/><polygon class="cls-1" points="1.88 10.35 2.1 11.02 2.8 11.02 2.23 11.43 2.45 12.1 1.88 11.68 1.31 12.1 1.53 11.43 0.96 11.02 1.66 11.02 1.88 10.35"/><polygon class="cls-1" points="3.79 11.97 4 12.64 4.71 12.64 4.14 13.05 4.36 13.73 3.79 13.31 3.22 13.73 3.44 13.05 2.87 12.64 3.57 12.64 3.79 11.97"/><polygon class="cls-1" points="1.88 13.55 2.1 14.22 2.8 14.22 2.23 14.63 2.45 15.31 1.88 14.89 1.31 15.31 1.53 14.63 0.96 14.22 1.66 14.22 1.88 13.55"/><polygon class="cls-1" points="7.6 2.35 7.81 3.02 8.52 3.02 7.95 3.44 8.17 4.11 7.6 3.69 7.03 4.11 7.25 3.44 6.67 3.02 7.38 3.02 7.6 2.35"/><polygon class="cls-1" points="5.69 3.93 5.91 4.6 6.61 4.6 6.04 5.02 6.26 5.69 5.69 5.27 5.12 5.69 5.34 5.02 4.77 4.6 5.47 4.6 5.69 3.93"/><polygon class="cls-1" points="7.6 5.56 7.81 6.23 8.52 6.23 7.95 6.64 8.17 7.31 7.6 6.9 7.03 7.31 7.25 6.64 6.67 6.23 7.38 6.23 7.6 5.56"/><polygon class="cls-1" points="5.69 7.14 5.91 7.81 6.61 7.81 6.04 8.22 6.26 8.89 5.69 8.48 5.12 8.89 5.34 8.22 4.77 7.81 5.47 7.81 5.69 7.14"/><polygon class="cls-1" points="7.6 8.77 7.81 9.44 8.52 9.44 7.95 9.85 8.17 10.52 7.6 10.1 7.03 10.52 7.25 9.85 6.67 9.44 7.38 9.44 7.6 8.77"/><polygon class="cls-1" points="5.69 10.35 5.91 11.02 6.61 11.02 6.04 11.43 6.26 12.1 5.69 11.68 5.12 12.1 5.34 11.43 4.77 11.02 5.47 11.02 5.69 10.35"/><polygon class="cls-1" points="7.6 11.97 7.81 12.64 8.52 12.64 7.95 13.05 8.17 13.73 7.6 13.31 7.03 13.73 7.25 13.05 6.67 12.64 7.38 12.64 7.6 11.97"/><polygon class="cls-1" points="5.69 13.55 5.91 14.22 6.61 14.22 6.04 14.63 6.26 15.31 5.69 14.89 5.12 15.31 5.34 14.63 4.77 14.22 5.47 14.22 5.69 13.55"/><path class="cls-1" d="M9.59,1l.12.39h.71l-.57.41.22.67L9.5,2.06l-.57.42.22-.67-.54-.39.06,0h.61l.1-.31Z"/><polygon class="cls-1" points="11.41 2.35 11.62 3.02 12.33 3.02 11.76 3.44 11.98 4.11 11.41 3.69 10.84 4.11 11.06 3.44 10.48 3.02 11.19 3.02 11.41 2.35"/><polygon class="cls-1" points="9.5 3.93 9.71 4.6 10.42 4.6 9.85 5.02 10.07 5.69 9.5 5.27 8.93 5.69 9.15 5.02 8.57 4.6 9.28 4.6 9.5 3.93"/><polygon class="cls-1" points="11.41 5.56 11.62 6.23 12.33 6.23 11.76 6.64 11.98 7.31 11.41 6.9 10.84 7.31 11.06 6.64 10.48 6.23 11.19 6.23 11.41 5.56"/><polygon class="cls-1" points="9.5 7.14 9.71 7.81 10.42 7.81 9.85 8.22 10.07 8.89 9.5 8.48 8.93 8.89 9.15 8.22 8.57 7.81 9.28 7.81 9.5 7.14"/><polygon class="cls-1" points="11.41 8.77 11.62 9.44 12.33 9.44 11.76 9.85 11.98 10.52 11.41 10.1 10.84 10.52 11.06 9.85 10.48 9.44 11.19 9.44 11.41 8.77"/><polygon class="cls-1" points="9.5 10.35 9.71 11.02 10.42 11.02 9.85 11.43 10.07 12.1 9.5 11.68 8.93 12.1 9.15 11.43 8.57 11.02 9.28 11.02 9.5 10.35"/><polygon class="cls-1" points="11.41 11.97 11.62 12.64 12.33 12.64 11.76 13.05 11.98 13.73 11.41 13.31 10.84 13.73 11.06 13.05 10.48 12.64 11.19 12.64 11.41 11.97"/><polygon class="cls-1" points="9.5 13.55 9.71 14.22 10.42 14.22 9.85 14.63 10.07 15.31 9.5 14.89 8.93 15.31 9.15 14.63 8.57 14.22 9.28 14.22 9.5 13.55"/><polygon class="cls-1" points="13.31 0.73 13.52 1.4 14.23 1.4 13.66 1.81 13.88 2.48 13.31 2.06 12.74 2.48 12.96 1.81 12.38 1.4 13.09 1.4 13.31 0.73"/><polygon class="cls-1" points="13.31 3.93 13.52 4.6 14.23 4.6 13.66 5.02 13.88 5.69 13.31 5.27 12.74 5.69 12.96 5.02 12.38 4.6 13.09 4.6 13.31 3.93"/><polygon class="cls-1" points="13.31 7.14 13.52 7.81 14.23 7.81 13.66 8.22 13.88 8.89 13.31 8.48 12.74 8.89 12.96 8.22 12.38 7.81 13.09 7.81 13.31 7.14"/><polygon class="cls-1" points="13.31 10.35 13.52 11.02 14.23 11.02 13.66 11.43 13.88 12.1 13.31 11.68 12.74 12.1 12.96 11.43 12.38 11.02 13.09 11.02 13.31 10.35"/><polygon class="cls-1" points="13.31 13.55 13.52 14.22 14.23 14.22 13.66 14.63 13.88 15.31 13.31 14.89 12.74 15.31 12.96 14.63 12.38 14.22 13.09 14.22 13.31 13.55"/></svg>