<svg id="Capa_1" data-name="Capa 1" xmlns="http://www.w3.org/2000/svg" viewBox="0 0 30 30"><defs><style>.cls-1{fill:#039;}.cls-1,.cls-2{fill-rule:evenodd;}.cls-2{fill:#fc0;}</style></defs><title>Mesa de trabajo 10</title><path class="cls-1" d="M15,30A15,15,0,1,0,0,15,15,15,0,0,0,15,30Z"/><polygon class="cls-2" points="15 2.96 15.4 4.2 16.69 4.19 15.64 4.95 16.05 6.18 15 5.42 13.95 6.18 14.36 4.95 13.31 4.19 14.6 4.2 15 2.96"/><polygon class="cls-2" points="20.21 4.36 20.61 5.59 21.91 5.59 20.86 6.35 21.26 7.58 20.21 6.82 19.17 7.58 19.57 6.35 18.52 5.59 19.82 5.59 20.21 4.36"/><polygon class="cls-2" points="24.03 8.18 24.42 9.41 25.72 9.41 24.67 10.17 25.07 11.4 24.03 10.64 22.98 11.4 23.38 10.17 22.33 9.41 23.63 9.41 24.03 8.18"/><polygon class="cls-2" points="25.42 13.39 25.82 14.62 27.11 14.62 26.07 15.38 26.47 16.61 25.42 15.85 24.38 16.61 24.78 15.38 23.73 14.62 25.02 14.62 25.42 13.39"/><polygon class="cls-2" points="24.04 18.6 24.43 19.84 25.73 19.83 24.68 20.59 25.08 21.82 24.04 21.06 22.99 21.82 23.39 20.59 22.34 19.83 23.64 19.84 24.04 18.6"/><polygon class="cls-2" points="20.21 22.41 20.61 23.65 21.9 23.64 20.85 24.4 21.25 25.63 20.21 24.87 19.16 25.63 19.57 24.4 18.52 23.64 19.81 23.65 20.21 22.41"/><polygon class="cls-2" points="15 23.82 15.39 25.05 16.69 25.05 15.64 25.81 16.04 27.04 15 26.27 13.95 27.04 14.35 25.81 13.3 25.05 14.6 25.05 15 23.82"/><polygon class="cls-2" points="9.79 22.42 10.19 23.65 11.48 23.65 10.44 24.41 10.84 25.64 9.79 24.87 8.75 25.64 9.15 24.41 8.1 23.65 9.39 23.65 9.79 22.42"/><polygon class="cls-2" points="5.96 18.59 6.36 19.83 7.65 19.82 6.61 20.58 7.01 21.81 5.96 21.05 4.92 21.81 5.32 20.58 4.27 19.82 5.56 19.83 5.96 18.59"/><polygon class="cls-2" points="4.57 13.39 4.97 14.62 6.27 14.62 5.22 15.38 5.62 16.61 4.57 15.85 3.53 16.61 3.93 15.38 2.88 14.62 4.18 14.62 4.57 13.39"/><polygon class="cls-2" points="5.96 8.19 6.35 9.42 7.65 9.42 6.6 10.18 7 11.41 5.96 10.65 4.91 11.41 5.31 10.18 4.26 9.42 5.56 9.42 5.96 8.19"/><polygon class="cls-2" points="9.78 4.38 10.18 5.61 11.47 5.61 10.42 6.37 10.82 7.6 9.78 6.83 8.73 7.6 9.13 6.37 8.09 5.61 9.38 5.61 9.78 4.38"/></svg>