<svg id="Capa_1" data-name="Capa 1" xmlns="http://www.w3.org/2000/svg" viewBox="0 0 30 30"><defs><style>.cls-1{fill:#009a33;}.cls-1,.cls-2,.cls-3,.cls-4,.cls-5{fill-rule:evenodd;}.cls-2{fill:#ffe100;}.cls-3{fill:#002675;}.cls-4{fill:#fff;}.cls-5,.cls-6{fill:#009a3a;}</style></defs><title>Mesa de trabajo 2</title><path class="cls-1" d="M15,30A15,15,0,1,0,0,15,15,15,0,0,0,15,30Z"/><polygon class="cls-2" points="0.63 15 15 24.18 29.37 15 15 5.82 0.63 15"/><path class="cls-3" d="M15,8.94A6.06,6.06,0,1,1,8.94,15,6.06,6.06,0,0,1,15,8.94Z"/><path class="cls-4" d="M9.46,12.55a14.24,14.24,0,0,1,2.08-.15A14.66,14.66,0,0,1,21,15.85a6.07,6.07,0,0,1-.21,1,13.83,13.83,0,0,0-9.25-3.54,13.67,13.67,0,0,0-2.41.21A5.15,5.15,0,0,1,9.46,12.55Z"/><path class="cls-5" d="M10.05,12.91a.26.26,0,1,0-.51.06.26.26,0,1,0,.51-.06Zm-.25-.14h0c.19,0,.19.35,0,.35S9.6,12.77,9.8,12.77Z"/><polygon class="cls-5" points="11.77 13.12 12.28 13.14 12.29 13.04 11.87 13.02 11.87 12.87 12.2 12.88 12.21 12.78 11.88 12.77 11.88 12.66 12.28 12.67 12.28 12.56 11.79 12.55 11.77 13.12"/><polygon class="cls-5" points="12.5 13.15 12.6 13.16 12.63 12.77 12.71 13.17 12.8 13.18 12.95 12.8 12.92 13.19 13.02 13.2 13.07 12.63 12.92 12.61 12.77 13 12.69 12.59 12.55 12.58 12.5 13.15"/><polygon class="cls-5" points="13.65 13.28 14.11 13.36 14.13 13.26 13.78 13.2 13.8 13.06 14.09 13.11 14.11 13 13.82 12.95 13.84 12.85 14.18 12.91 14.2 12.81 13.75 12.73 13.65 13.28"/><polygon class="cls-5" points="17.27 14.04 17.47 14.12 17.44 14.2 17.24 14.11 17.27 14.04"/><rect class="cls-6" x="17.23" y="14.2" width="0.29" height="0.08" transform="translate(-2.61 24.5) rotate(-66.52)"/><polygon class="cls-5" points="18.2 14.81 18.66 15.07 18.71 14.97 18.34 14.77 18.42 14.64 18.7 14.8 18.75 14.71 18.46 14.55 18.52 14.45 18.87 14.65 18.92 14.55 18.49 14.31 18.2 14.81"/><path class="cls-5" d="M19.05,15.09c0,.05,0,.11.07.15s.11,0,.13,0-.3-.24-.19-.41.27,0,.33,0,.16.15.08.26l-.1-.06s0-.11-.06-.14-.1-.05-.13,0,.3.23.19.4-.22.08-.31,0-.2-.17-.12-.3Z"/><path class="cls-5" d="M19.67,15.5c0,.05,0,.11.06.15s.11,0,.13,0-.29-.26-.16-.42.26,0,.32,0a.19.19,0,0,1,.07.27l-.1-.08c0-.05,0-.1,0-.14s-.1-.05-.13,0,.29.24.17.41-.22.06-.31,0-.19-.18-.11-.3Z"/><polygon class="cls-4" points="10.05 13.65 9.97 13.9 10.1 13.94 10.05 13.65"/><polygon class="cls-4" points="10.05 13.65 10.13 13.9 10.01 13.94 10.05 13.65"/><polygon class="cls-4" points="10.3 13.83 10.04 13.83 10.04 13.96 10.3 13.83"/><polygon class="cls-4" points="10.3 13.83 10.09 13.98 10.01 13.88 10.3 13.83"/><polygon class="cls-4" points="9.8 13.83 10.02 13.98 10.09 13.88 9.8 13.83"/><polygon class="cls-4" points="9.8 13.83 10.06 13.83 10.06 13.96 9.8 13.83"/><polygon class="cls-4" points="10.21 14.12 10.13 13.87 10 13.91 10.21 14.12"/><polygon class="cls-4" points="10.21 14.12 9.99 13.97 10.07 13.86 10.21 14.12"/><polygon class="cls-4" points="9.9 14.12 10.11 13.97 10.03 13.86 9.9 14.12"/><polygon class="cls-4" points="9.9 14.12 9.98 13.87 10.1 13.91 9.9 14.12"/><polygon class="cls-4" points="10.59 16.2 10.51 16.45 10.63 16.49 10.59 16.2"/><polygon class="cls-4" points="10.59 16.2 10.67 16.45 10.54 16.49 10.59 16.2"/><polygon class="cls-4" points="10.84 16.38 10.57 16.38 10.57 16.51 10.84 16.38"/><polygon class="cls-4" points="10.84 16.38 10.63 16.53 10.55 16.43 10.84 16.38"/><polygon class="cls-4" points="10.34 16.38 10.55 16.53 10.63 16.43 10.34 16.38"/><polygon class="cls-4" points="10.34 16.38 10.6 16.38 10.6 16.51 10.34 16.38"/><polygon class="cls-4" points="10.74 16.67 10.66 16.42 10.54 16.46 10.74 16.67"/><polygon class="cls-4" points="10.74 16.67 10.53 16.52 10.61 16.41 10.74 16.67"/><polygon class="cls-4" points="10.44 16.67 10.64 16.52 10.57 16.41 10.44 16.67"/><polygon class="cls-4" points="10.44 16.67 10.52 16.42 10.64 16.46 10.44 16.67"/><polygon class="cls-4" points="9.85 16.79 9.78 16.99 9.88 17.03 9.85 16.79"/><polygon class="cls-4" points="9.85 16.79 9.91 16.99 9.81 17.03 9.85 16.79"/><polygon class="cls-4" points="10.05 16.94 9.84 16.94 9.84 17.05 10.05 16.94"/><polygon class="cls-4" points="10.05 16.94 9.88 17.06 9.81 16.98 10.05 16.94"/><polygon class="cls-4" points="9.64 16.94 9.81 17.06 9.88 16.98 9.64 16.94"/><polygon class="cls-4" points="9.64 16.94 9.86 16.94 9.86 17.05 9.64 16.94"/><polygon class="cls-4" points="9.97 17.18 9.91 16.97 9.8 17.01 9.97 17.18"/><polygon class="cls-4" points="9.97 17.18 9.8 17.05 9.86 16.96 9.97 17.18"/><polygon class="cls-4" points="9.72 17.18 9.89 17.05 9.83 16.96 9.72 17.18"/><polygon class="cls-4" points="9.72 17.18 9.79 16.97 9.89 17.01 9.72 17.18"/><polygon class="cls-4" points="15 17.49 14.92 17.74 15.04 17.78 15 17.49"/><polygon class="cls-4" points="15 17.49 15.08 17.74 14.96 17.78 15 17.49"/><polygon class="cls-4" points="14.75 17.67 14.96 17.82 15.04 17.72 14.75 17.67"/><polygon class="cls-4" points="14.75 17.67 15.01 17.67 15.01 17.8 14.75 17.67"/><polygon class="cls-4" points="15.25 17.67 14.99 17.67 14.99 17.8 15.25 17.67"/><polygon class="cls-4" points="15.25 17.67 15.04 17.82 14.96 17.72 15.25 17.67"/><polygon class="cls-4" points="15.15 17.96 15.07 17.71 14.95 17.75 15.15 17.96"/><polygon class="cls-4" points="15.15 17.96 14.94 17.81 15.02 17.7 15.15 17.96"/><polygon class="cls-4" points="14.85 17.96 15.06 17.81 14.98 17.7 14.85 17.96"/><polygon class="cls-4" points="14.85 17.96 14.93 17.71 15.05 17.75 14.85 17.96"/><polygon class="cls-4" points="12.57 17.93 12.49 18.17 12.62 18.21 12.57 17.93"/><polygon class="cls-4" points="12.57 17.93 12.65 18.17 12.53 18.21 12.57 17.93"/><polygon class="cls-4" points="12.33 18.1 12.54 18.26 12.61 18.15 12.33 18.1"/><polygon class="cls-4" points="12.33 18.1 12.59 18.1 12.59 18.23 12.33 18.1"/><polygon class="cls-4" points="12.82 18.1 12.56 18.1 12.56 18.23 12.82 18.1"/><polygon class="cls-4" points="12.82 18.1 12.61 18.26 12.53 18.15 12.82 18.1"/><polygon class="cls-4" points="12.72 18.39 12.64 18.15 12.52 18.19 12.72 18.39"/><polygon class="cls-4" points="12.72 18.39 12.52 18.24 12.59 18.14 12.72 18.39"/><polygon class="cls-4" points="12.42 18.39 12.63 18.24 12.55 18.14 12.42 18.39"/><polygon class="cls-4" points="12.42 18.39 12.5 18.15 12.62 18.19 12.42 18.39"/><polygon class="cls-4" points="19.25 16.86 19.17 17.11 19.29 17.15 19.25 16.86"/><polygon class="cls-4" points="19.25 16.86 19.33 17.11 19.2 17.15 19.25 16.86"/><polygon class="cls-4" points="19 17.04 19.21 17.2 19.29 17.09 19 17.04"/><polygon class="cls-4" points="19 17.04 19.26 17.04 19.26 17.17 19 17.04"/><polygon class="cls-4" points="19.49 17.04 19.23 17.04 19.23 17.17 19.49 17.04"/><polygon class="cls-4" points="19.49 17.04 19.28 17.2 19.21 17.09 19.49 17.04"/><polygon class="cls-4" points="19.4 17.33 19.32 17.09 19.2 17.13 19.4 17.33"/><polygon class="cls-4" points="19.4 17.33 19.19 17.18 19.27 17.08 19.4 17.33"/><polygon class="cls-4" points="19.09 17.33 19.3 17.18 19.23 17.08 19.09 17.33"/><polygon class="cls-4" points="19.09 17.33 19.17 17.09 19.3 17.13 19.09 17.33"/><polygon class="cls-4" points="16.81 18.86 16.74 19.07 16.85 19.1 16.81 18.86"/><polygon class="cls-4" points="16.81 18.86 16.88 19.07 16.77 19.1 16.81 18.86"/><polygon class="cls-4" points="16.6 19.01 16.78 19.14 16.84 19.05 16.6 19.01"/><polygon class="cls-4" points="16.6 19.01 16.82 19.01 16.82 19.12 16.6 19.01"/><polygon class="cls-4" points="17.02 19.01 16.8 19.01 16.8 19.12 17.02 19.01"/><polygon class="cls-4" points="17.02 19.01 16.84 19.14 16.78 19.05 17.02 19.01"/><polygon class="cls-4" points="16.94 19.26 16.87 19.05 16.77 19.08 16.94 19.26"/><polygon class="cls-4" points="16.94 19.26 16.76 19.13 16.83 19.04 16.94 19.26"/><polygon class="cls-4" points="16.68 19.26 16.86 19.13 16.8 19.04 16.68 19.26"/><polygon class="cls-4" points="16.68 19.26 16.75 19.05 16.86 19.08 16.68 19.26"/><polygon class="cls-4" points="18.03 18.71 17.96 18.91 18.06 18.95 18.03 18.71"/><polygon class="cls-4" points="18.03 18.71 18.09 18.91 17.99 18.95 18.03 18.71"/><polygon class="cls-4" points="17.82 18.86 18 18.98 18.06 18.9 17.82 18.86"/><polygon class="cls-4" points="17.82 18.86 18.04 18.86 18.04 18.97 17.82 18.86"/><polygon class="cls-4" points="18.23 18.86 18.02 18.86 18.02 18.97 18.23 18.86"/><polygon class="cls-4" points="18.23 18.86 18.06 18.98 17.99 18.9 18.23 18.86"/><polygon class="cls-4" points="18.15 19.1 18.09 18.89 17.98 18.93 18.15 19.1"/><polygon class="cls-4" points="18.15 19.1 17.98 18.97 18.04 18.88 18.15 19.1"/><polygon class="cls-4" points="17.9 19.1 18.07 18.97 18.01 18.88 17.9 19.1"/><polygon class="cls-4" points="17.9 19.1 17.96 18.89 18.07 18.93 17.9 19.1"/><polygon class="cls-4" points="19.13 17.93 19.06 18.14 19.16 18.17 19.13 17.93"/><polygon class="cls-4" points="19.13 17.93 19.2 18.14 19.09 18.17 19.13 17.93"/><polygon class="cls-4" points="18.92 18.08 19.1 18.21 19.16 18.12 18.92 18.08"/><polygon class="cls-4" points="18.92 18.08 19.14 18.08 19.14 18.19 18.92 18.08"/><polygon class="cls-4" points="19.34 18.08 19.12 18.08 19.12 18.19 19.34 18.08"/><polygon class="cls-4" points="19.34 18.08 19.16 18.21 19.1 18.12 19.34 18.08"/><polygon class="cls-4" points="19.26 18.32 19.19 18.11 19.09 18.15 19.26 18.32"/><polygon class="cls-4" points="19.26 18.32 19.08 18.19 19.14 18.11 19.26 18.32"/><polygon class="cls-4" points="19 18.32 19.18 18.19 19.11 18.11 19 18.32"/><polygon class="cls-4" points="19 18.32 19.07 18.11 19.17 18.15 19 18.32"/><polygon class="cls-4" points="19.49 17.45 19.43 17.66 19.53 17.7 19.49 17.45"/><polygon class="cls-4" points="19.49 17.45 19.56 17.66 19.46 17.7 19.49 17.45"/><polygon class="cls-4" points="19.29 17.61 19.46 17.73 19.53 17.64 19.29 17.61"/><polygon class="cls-4" points="19.29 17.61 19.5 17.61 19.5 17.71 19.29 17.61"/><polygon class="cls-4" points="19.7 17.61 19.48 17.61 19.48 17.71 19.7 17.61"/><polygon class="cls-4" points="19.7 17.61 19.52 17.73 19.46 17.64 19.7 17.61"/><polygon class="cls-4" points="19.62 17.85 19.55 17.64 19.45 17.68 19.62 17.85"/><polygon class="cls-4" points="19.62 17.85 19.45 17.72 19.51 17.63 19.62 17.85"/><polygon class="cls-4" points="19.36 17.85 19.54 17.72 19.48 17.63 19.36 17.85"/><polygon class="cls-4" points="19.36 17.85 19.43 17.64 19.54 17.68 19.36 17.85"/><polygon class="cls-4" points="15.7 16.31 15.63 16.51 15.74 16.55 15.7 16.31"/><polygon class="cls-4" points="15.7 16.31 15.77 16.51 15.66 16.55 15.7 16.31"/><polygon class="cls-4" points="15.49 16.46 15.67 16.59 15.73 16.5 15.49 16.46"/><polygon class="cls-4" points="15.49 16.46 15.71 16.46 15.71 16.57 15.49 16.46"/><polygon class="cls-4" points="15.91 16.46 15.69 16.46 15.69 16.57 15.91 16.46"/><polygon class="cls-4" points="15.91 16.46 15.73 16.59 15.67 16.5 15.91 16.46"/><polygon class="cls-4" points="15.83 16.7 15.76 16.49 15.66 16.53 15.83 16.7"/><polygon class="cls-4" points="15.83 16.7 15.65 16.57 15.72 16.48 15.83 16.7"/><polygon class="cls-4" points="15.57 16.7 15.75 16.57 15.69 16.48 15.57 16.7"/><polygon class="cls-4" points="15.57 16.7 15.64 16.49 15.74 16.53 15.57 16.7"/><polygon class="cls-4" points="15 15.78 14.93 15.98 15.04 16.02 15 15.78"/><polygon class="cls-4" points="15 15.78 15.07 15.98 14.96 16.02 15 15.78"/><polygon class="cls-4" points="14.79 15.93 14.97 16.06 15.03 15.97 14.79 15.93"/><polygon class="cls-4" points="14.79 15.93 15.01 15.93 15.01 16.04 14.79 15.93"/><polygon class="cls-4" points="15.21 15.93 14.99 15.93 14.99 16.04 15.21 15.93"/><polygon class="cls-4" points="15.21 15.93 15.03 16.06 14.97 15.97 15.21 15.93"/><polygon class="cls-4" points="15.13 16.17 15.06 15.96 14.96 16 15.13 16.17"/><polygon class="cls-4" points="15.13 16.17 14.95 16.04 15.02 15.96 15.13 16.17"/><polygon class="cls-4" points="14.87 16.17 15.05 16.04 14.98 15.96 14.87 16.17"/><polygon class="cls-4" points="14.87 16.17 14.94 15.96 15.04 16 14.87 16.17"/><polygon class="cls-4" points="16.9 12.89 16.83 13.1 16.94 13.13 16.9 12.89"/><polygon class="cls-4" points="16.9 12.89 16.97 13.1 16.86 13.13 16.9 12.89"/><polygon class="cls-4" points="16.69 13.04 16.87 13.17 16.93 13.08 16.69 13.04"/><polygon class="cls-4" points="16.69 13.04 16.91 13.04 16.91 13.15 16.69 13.04"/><polygon class="cls-4" points="17.11 13.04 16.89 13.04 16.89 13.15 17.11 13.04"/><polygon class="cls-4" points="17.11 13.04 16.93 13.17 16.87 13.08 17.11 13.04"/><polygon class="cls-4" points="17.03 13.29 16.96 13.08 16.86 13.11 17.03 13.29"/><polygon class="cls-4" points="17.03 13.29 16.85 13.16 16.92 13.07 17.03 13.29"/><polygon class="cls-4" points="16.77 13.29 16.95 13.16 16.88 13.07 16.77 13.29"/><polygon class="cls-4" points="16.77 13.29 16.84 13.08 16.94 13.11 16.77 13.29"/><polygon class="cls-4" points="12.7 15.03 12.63 15.23 12.73 15.27 12.7 15.03"/><polygon class="cls-4" points="12.7 15.03 12.76 15.23 12.66 15.27 12.7 15.03"/><polygon class="cls-4" points="12.49 15.18 12.66 15.3 12.73 15.22 12.49 15.18"/><polygon class="cls-4" points="12.49 15.18 12.71 15.18 12.71 15.28 12.49 15.18"/><polygon class="cls-4" points="12.9 15.18 12.68 15.18 12.68 15.28 12.9 15.18"/><polygon class="cls-4" points="12.9 15.18 12.72 15.3 12.66 15.22 12.9 15.18"/><polygon class="cls-4" points="12.82 15.41 12.75 15.21 12.65 15.24 12.82 15.41"/><polygon class="cls-4" points="12.82 15.41 12.65 15.29 12.71 15.2 12.82 15.41"/><polygon class="cls-4" points="12.57 15.41 12.74 15.29 12.68 15.2 12.57 15.41"/><polygon class="cls-4" points="12.57 15.41 12.64 15.21 12.74 15.24 12.57 15.41"/><polygon class="cls-4" points="20.09 17.01 20.04 17.18 20.13 17.21 20.09 17.01"/><polygon class="cls-4" points="20.09 17.01 20.15 17.18 20.07 17.21 20.09 17.01"/><polygon class="cls-4" points="19.92 17.13 20.07 17.24 20.12 17.17 19.92 17.13"/><polygon class="cls-4" points="19.92 17.13 20.1 17.13 20.1 17.23 19.92 17.13"/><polygon class="cls-4" points="20.27 17.13 20.09 17.13 20.09 17.23 20.27 17.13"/><polygon class="cls-4" points="20.27 17.13 20.12 17.24 20.07 17.17 20.27 17.13"/><polygon class="cls-4" points="20.2 17.34 20.14 17.16 20.06 17.19 20.2 17.34"/><polygon class="cls-4" points="20.2 17.34 20.05 17.23 20.11 17.16 20.2 17.34"/><polygon class="cls-4" points="19.99 17.34 20.14 17.23 20.08 17.16 19.99 17.34"/><polygon class="cls-4" points="19.99 17.34 20.05 17.16 20.13 17.19 19.99 17.34"/><polygon class="cls-4" points="16.66 14.52 16.6 14.69 16.69 14.72 16.66 14.52"/><polygon class="cls-4" points="16.66 14.52 16.71 14.69 16.63 14.72 16.66 14.52"/><polygon class="cls-4" points="16.49 14.64 16.63 14.75 16.69 14.67 16.49 14.64"/><polygon class="cls-4" points="16.49 14.64 16.67 14.64 16.67 14.73 16.49 14.64"/><polygon class="cls-4" points="16.83 14.64 16.65 14.64 16.65 14.73 16.83 14.64"/><polygon class="cls-4" points="16.83 14.64 16.68 14.75 16.63 14.67 16.83 14.64"/><polygon class="cls-4" points="16.77 14.84 16.71 14.67 16.62 14.7 16.77 14.84"/><polygon class="cls-4" points="16.77 14.84 16.62 14.74 16.67 14.66 16.77 14.84"/><polygon class="cls-4" points="16.55 14.84 16.7 14.74 16.65 14.66 16.55 14.84"/><polygon class="cls-4" points="16.55 14.84 16.61 14.67 16.7 14.7 16.55 14.84"/><polygon class="cls-4" points="18.01 18.16 17.95 18.33 18.04 18.36 18.01 18.16"/><polygon class="cls-4" points="18.01 18.16 18.07 18.33 17.98 18.36 18.01 18.16"/><polygon class="cls-4" points="17.84 18.28 17.98 18.39 18.04 18.32 17.84 18.28"/><polygon class="cls-4" points="17.84 18.28 18.02 18.28 18.02 18.37 17.84 18.28"/><polygon class="cls-4" points="18.18 18.28 18 18.28 18 18.37 18.18 18.28"/><polygon class="cls-4" points="18.18 18.28 18.04 18.39 17.98 18.32 18.18 18.28"/><polygon class="cls-4" points="18.12 18.48 18.06 18.31 17.98 18.34 18.12 18.48"/><polygon class="cls-4" points="18.12 18.48 17.97 18.38 18.02 18.31 18.12 18.48"/><polygon class="cls-4" points="17.91 18.48 18.05 18.38 18 18.31 17.91 18.48"/><polygon class="cls-4" points="17.91 18.48 17.96 18.31 18.05 18.34 17.91 18.48"/><polygon class="cls-4" points="18.64 18.27 18.59 18.44 18.67 18.47 18.64 18.27"/><polygon class="cls-4" points="18.64 18.27 18.7 18.44 18.61 18.47 18.64 18.27"/><polygon class="cls-4" points="18.47 18.39 18.62 18.5 18.67 18.43 18.47 18.39"/><polygon class="cls-4" points="18.47 18.39 18.65 18.39 18.65 18.48 18.47 18.39"/><polygon class="cls-4" points="18.82 18.39 18.64 18.39 18.64 18.48 18.82 18.39"/><polygon class="cls-4" points="18.82 18.39 18.67 18.5 18.62 18.43 18.82 18.39"/><polygon class="cls-4" points="18.75 18.59 18.69 18.42 18.61 18.45 18.75 18.59"/><polygon class="cls-4" points="18.75 18.59 18.6 18.49 18.66 18.41 18.75 18.59"/><polygon class="cls-4" points="18.54 18.59 18.68 18.49 18.63 18.41 18.54 18.59"/><polygon class="cls-4" points="18.54 18.59 18.59 18.42 18.68 18.45 18.54 18.59"/><polygon class="cls-4" points="18.04 19.37 17.98 19.54 18.07 19.56 18.04 19.37"/><polygon class="cls-4" points="18.04 19.37 18.1 19.54 18.01 19.56 18.04 19.37"/><polygon class="cls-4" points="17.87 19.49 18.02 19.59 18.07 19.52 17.87 19.49"/><polygon class="cls-4" points="17.87 19.49 18.05 19.49 18.05 19.58 17.87 19.49"/><polygon class="cls-4" points="18.21 19.49 18.03 19.49 18.03 19.58 18.21 19.49"/><polygon class="cls-4" points="18.21 19.49 18.07 19.59 18.01 19.52 18.21 19.49"/><polygon class="cls-4" points="18.15 19.69 18.09 19.52 18 19.55 18.15 19.69"/><polygon class="cls-4" points="18.15 19.69 18 19.59 18.05 19.51 18.15 19.69"/><polygon class="cls-4" points="17.93 19.69 18.08 19.59 18.03 19.51 17.93 19.69"/><polygon class="cls-4" points="17.93 19.69 17.99 19.52 18.08 19.55 17.93 19.69"/><polygon class="cls-4" points="17.34 18.36 17.28 18.53 17.37 18.56 17.34 18.36"/><polygon class="cls-4" points="17.34 18.36 17.39 18.53 17.31 18.56 17.34 18.36"/><polygon class="cls-4" points="17.16 18.48 17.31 18.59 17.36 18.52 17.16 18.48"/><polygon class="cls-4" points="17.16 18.48 17.34 18.48 17.34 18.57 17.16 18.48"/><polygon class="cls-4" points="17.51 18.48 17.33 18.48 17.33 18.57 17.51 18.48"/><polygon class="cls-4" points="17.51 18.48 17.36 18.59 17.31 18.52 17.51 18.48"/><polygon class="cls-4" points="17.44 18.69 17.39 18.51 17.3 18.54 17.44 18.69"/><polygon class="cls-4" points="17.44 18.69 17.3 18.58 17.35 18.51 17.44 18.69"/><polygon class="cls-4" points="17.23 18.69 17.38 18.58 17.32 18.51 17.23 18.69"/><polygon class="cls-4" points="17.23 18.69 17.29 18.51 17.37 18.54 17.23 18.69"/><polygon class="cls-4" points="16.33 18.22 16.28 18.39 16.36 18.42 16.33 18.22"/><polygon class="cls-4" points="16.33 18.22 16.39 18.39 16.3 18.42 16.33 18.22"/><polygon class="cls-4" points="16.16 18.35 16.31 18.45 16.36 18.38 16.16 18.35"/><polygon class="cls-4" points="16.16 18.35 16.34 18.35 16.34 18.44 16.16 18.35"/><polygon class="cls-4" points="16.5 18.35 16.33 18.35 16.33 18.44 16.5 18.35"/><polygon class="cls-4" points="16.5 18.35 16.36 18.45 16.31 18.38 16.5 18.35"/><polygon class="cls-4" points="16.44 18.55 16.39 18.38 16.3 18.41 16.44 18.55"/><polygon class="cls-4" points="16.44 18.55 16.3 18.44 16.35 18.37 16.44 18.55"/><polygon class="cls-4" points="16.23 18.55 16.37 18.44 16.32 18.37 16.23 18.55"/><polygon class="cls-4" points="16.23 18.55 16.28 18.38 16.37 18.41 16.23 18.55"/><polygon class="cls-4" points="11.86 16.85 11.8 17.04 11.9 17.07 11.86 16.85"/><polygon class="cls-4" points="11.86 16.85 11.92 17.04 11.83 17.07 11.86 16.85"/><polygon class="cls-4" points="11.68 16.99 11.84 17.1 11.89 17.02 11.68 16.99"/><polygon class="cls-4" points="11.68 16.99 11.87 16.99 11.87 17.08 11.68 16.99"/><polygon class="cls-4" points="12.05 16.99 11.85 16.99 11.85 17.08 12.05 16.99"/><polygon class="cls-4" points="12.05 16.99 11.89 17.1 11.83 17.02 12.05 16.99"/><polygon class="cls-4" points="11.98 17.21 11.92 17.02 11.82 17.05 11.98 17.21"/><polygon class="cls-4" points="11.98 17.21 11.82 17.09 11.88 17.01 11.98 17.21"/><polygon class="cls-4" points="11.75 17.21 11.91 17.09 11.85 17.01 11.75 17.21"/><polygon class="cls-4" points="11.75 17.21 11.81 17.02 11.9 17.05 11.75 17.21"/><polygon class="cls-4" points="11.68 17.5 11.62 17.67 11.71 17.7 11.68 17.5"/><polygon class="cls-4" points="11.68 17.5 11.73 17.67 11.65 17.7 11.68 17.5"/><polygon class="cls-4" points="11.51 17.62 11.65 17.73 11.71 17.65 11.51 17.62"/><polygon class="cls-4" points="11.51 17.62 11.69 17.62 11.69 17.71 11.51 17.62"/><polygon class="cls-4" points="11.85 17.62 11.67 17.62 11.67 17.71 11.85 17.62"/><polygon class="cls-4" points="11.85 17.62 11.7 17.73 11.65 17.65 11.85 17.62"/><polygon class="cls-4" points="11.78 17.82 11.73 17.65 11.64 17.68 11.78 17.82"/><polygon class="cls-4" points="11.78 17.82 11.64 17.72 11.69 17.64 11.78 17.82"/><polygon class="cls-4" points="11.57 17.82 11.72 17.72 11.66 17.64 11.57 17.82"/><polygon class="cls-4" points="11.57 17.82 11.63 17.65 11.71 17.68 11.57 17.82"/><polygon class="cls-4" points="14.39 16.35 14.33 16.52 14.42 16.55 14.39 16.35"/><polygon class="cls-4" points="14.39 16.35 14.44 16.52 14.36 16.55 14.39 16.35"/><polygon class="cls-4" points="14.22 16.47 14.36 16.58 14.41 16.51 14.22 16.47"/><polygon class="cls-4" points="14.22 16.47 14.4 16.47 14.4 16.56 14.22 16.47"/><polygon class="cls-4" points="14.56 16.47 14.38 16.47 14.38 16.56 14.56 16.47"/><polygon class="cls-4" points="14.56 16.47 14.41 16.58 14.36 16.51 14.56 16.47"/><polygon class="cls-4" points="14.49 16.68 14.44 16.5 14.35 16.53 14.49 16.68"/><polygon class="cls-4" points="14.49 16.68 14.35 16.57 14.4 16.5 14.49 16.68"/><polygon class="cls-4" points="14.28 16.68 14.43 16.57 14.37 16.5 14.28 16.68"/><polygon class="cls-4" points="14.28 16.68 14.34 16.5 14.42 16.53 14.28 16.68"/><polygon class="cls-4" points="11.18 15.99 11.14 16.09 11.2 16.11 11.18 15.99"/><polygon class="cls-4" points="11.18 15.99 11.21 16.09 11.16 16.11 11.18 15.99"/><polygon class="cls-4" points="11.07 16.06 11.16 16.13 11.19 16.08 11.07 16.06"/><polygon class="cls-4" points="11.07 16.06 11.18 16.06 11.18 16.12 11.07 16.06"/><polygon class="cls-4" points="11.28 16.06 11.17 16.06 11.17 16.12 11.28 16.06"/><polygon class="cls-4" points="11.28 16.06 11.19 16.13 11.16 16.08 11.28 16.06"/><polygon class="cls-4" points="11.24 16.19 11.21 16.08 11.15 16.1 11.24 16.19"/><polygon class="cls-4" points="11.24 16.19 11.15 16.12 11.19 16.08 11.24 16.19"/><polygon class="cls-4" points="11.11 16.19 11.2 16.12 11.17 16.08 11.11 16.19"/><polygon class="cls-4" points="11.11 16.19 11.15 16.08 11.2 16.1 11.11 16.19"/><polygon class="cls-4" points="14.69 16.82 14.66 16.92 14.71 16.94 14.69 16.82"/><polygon class="cls-4" points="14.69 16.82 14.72 16.92 14.67 16.94 14.69 16.82"/><polygon class="cls-4" points="14.59 16.89 14.68 16.96 14.71 16.91 14.59 16.89"/><polygon class="cls-4" points="14.59 16.89 14.7 16.89 14.7 16.95 14.59 16.89"/><polygon class="cls-4" points="14.79 16.89 14.69 16.89 14.69 16.95 14.79 16.89"/><polygon class="cls-4" points="14.79 16.89 14.71 16.96 14.67 16.91 14.79 16.89"/><polygon class="cls-4" points="14.76 17.01 14.72 16.91 14.67 16.93 14.76 17.01"/><polygon class="cls-4" points="14.76 17.01 14.67 16.95 14.7 16.91 14.76 17.01"/><polygon class="cls-4" points="14.63 17.01 14.71 16.95 14.68 16.91 14.63 17.01"/><polygon class="cls-4" points="14.63 17.01 14.66 16.91 14.71 16.93 14.63 17.01"/><polygon class="cls-4" points="15 19.66 14.97 19.74 15.01 19.75 15 19.66"/><polygon class="cls-4" points="15 19.66 15.02 19.74 14.98 19.75 15 19.66"/><polygon class="cls-4" points="14.92 19.72 14.98 19.77 15.01 19.73 14.92 19.72"/><polygon class="cls-4" points="14.92 19.72 15 19.72 15 19.76 14.92 19.72"/><polygon class="cls-4" points="15.08 19.72 14.99 19.72 14.99 19.76 15.08 19.72"/><polygon class="cls-4" points="15.08 19.72 15.01 19.77 14.98 19.73 15.08 19.72"/><polygon class="cls-4" points="15.04 19.81 15.02 19.73 14.98 19.74 15.04 19.81"/><polygon class="cls-4" points="15.04 19.81 14.98 19.76 15 19.73 15.04 19.81"/><polygon class="cls-4" points="14.95 19.81 15.02 19.76 14.99 19.73 14.95 19.81"/><polygon class="cls-4" points="14.95 19.81 14.97 19.73 15.01 19.74 14.95 19.81"/><path class="cls-5" d="M20.69,16.08a.28.28,0,0,0-.1-.38.29.29,0,0,0-.26.51.27.27,0,0,0,.36-.13Zm-.13-.27h0c.16.11,0,.4-.2.29S20.4,15.7,20.56,15.81Z"/><path class="cls-5" d="M11.5,12.66a.23.23,0,0,0-.19-.11H11v.58h.29a.26.26,0,0,0,.18-.1.26.26,0,0,0,.05-.18.3.3,0,0,0-.05-.18Zm-.23.36h-.13v-.36h.17a.15.15,0,0,1,.14.1.45.45,0,0,1,0,.11.22.22,0,0,1,0,.11A.19.19,0,0,1,11.27,13Z"/><path class="cls-5" d="M10.71,12.91a.27.27,0,0,0,.08-.13.16.16,0,0,0,0-.15.14.14,0,0,0-.12-.05l-.35,0,0,.58h.11l0-.22h.23a.52.52,0,0,1,.07.15v.06h.1a.36.36,0,0,0,0-.16.21.21,0,0,0-.06-.08Zm-.06-.09h0s-.09,0-.09,0h-.17s0-.1,0-.15h.24l0,0a0,0,0,0,1,0,0A.11.11,0,0,1,10.65,12.82Z"/><path class="cls-5" d="M16.8,13.84a.27.27,0,0,0-.15-.36.27.27,0,0,0-.34.18.28.28,0,0,0,.15.36.27.27,0,0,0,.34-.18Zm-.17-.25h0c.18.09,0,.4-.15.32S16.46,13.5,16.63,13.59Z"/><path class="cls-5" d="M16,13.57a.27.27,0,0,0,.12-.08.18.18,0,0,0,0-.16s0-.08-.09-.1l-.34-.11-.18.55.1,0,.06-.2.18.06h0a.41.41,0,0,1,0,.16.09.09,0,0,1,0,.06l.1,0a.49.49,0,0,0,0-.16.65.65,0,0,0,0-.1Zm0-.1h0s-.08,0-.08,0l-.18,0,.05-.14.16.05.06,0,0,0a.11.11,0,0,1,0,.06S16,13.46,16,13.47Z"/><path class="cls-5" d="M18.07,14.46a.31.31,0,0,0,.12-.07.18.18,0,0,0,0-.16.23.23,0,0,0-.08-.11L17.83,14l-.26.51.1,0,.09-.19.17.08,0,0a.6.6,0,0,1,0,.16.3.3,0,0,1,0,.06l.09.05a.37.37,0,0,0,.06-.16.21.21,0,0,0,0-.09Zm0-.11h0l-.09,0-.16-.08.07-.13.15.07.06,0,0,0a.07.07,0,0,1,0,.06A.09.09,0,0,1,18.06,14.35Z"/><path class="cls-5" d="M15.27,13.37a.21.21,0,0,0,.11-.1.18.18,0,0,0,0-.16.14.14,0,0,0-.1-.08l-.34-.09-.14.56.1,0,0-.2.18,0h.14Zm0-.11h0a.2.2,0,0,1-.09,0l-.17,0,0-.14.17,0h.06l0,0a.07.07,0,0,1,0,.05S15.25,13.26,15.24,13.26Z"/><path class="cls-5" d="M17.42,14.1l-.05,0a.16.16,0,0,1-.23.09c-.16-.12,0-.41.2-.29a.13.13,0,0,1,.06.1s.05,0,.07,0h0a.26.26,0,0,0-.13-.26.28.28,0,0,0-.36.14.27.27,0,0,0,.1.38.28.28,0,0,0,.36-.14v0Z"/></svg>